<svg xmlns="http://www.w3.org/2000/svg" xmlns:xlink="http://www.w3.org/1999/xlink" width="400" zoomAndPan="magnify" viewBox="0 0 300 115.499997" height="154" preserveAspectRatio="xMidYMid meet" version="1.0"><defs><g/></defs><path fill="#db9559" d="M 106.605469 41.167969 C 107.679688 43.859375 107.421875 46.871094 106.09375 49.8125 C 103.136719 51.164062 100.574219 50.433594 100.441406 50.398438 C 99.945312 50.25 99.414062 50.523438 99.269531 51.015625 C 99.113281 51.511719 99.394531 52.039062 99.890625 52.195312 C 100.019531 52.234375 102.089844 52.828125 104.757812 52.226562 C 103.367188 54.351562 101.453125 56.382812 99.097656 58.175781 C 95.605469 56.410156 91.023438 53.234375 88.699219 48.101562 C 87.34375 45.117188 86.914062 41.753906 87.414062 38.0625 C 87.578125 36.800781 87.847656 35.496094 88.226562 34.160156 C 88.730469 34.082031 89.226562 34.023438 89.722656 33.976562 C 95.09375 33.445312 99.9375 34.480469 103.175781 36.855469 C 104.734375 37.984375 105.914062 39.4375 106.605469 41.167969 Z M 91.394531 62.515625 C 90.285156 62.957031 89.160156 63.335938 88.058594 63.644531 C 84.5 62.023438 79.058594 58.726562 76.460938 52.988281 C 74.582031 48.84375 74.476562 43.984375 76.125 38.503906 C 76.871094 38.054688 77.644531 37.632812 78.449219 37.242188 C 79.230469 36.859375 80.035156 36.496094 80.867188 36.164062 C 81.261719 36.007812 81.65625 35.859375 82.058594 35.722656 C 81.925781 36.429688 81.820312 37.132812 81.742188 37.820312 C 81.207031 42.371094 81.816406 46.585938 83.558594 50.429688 C 85.90625 55.621094 89.914062 59.1875 93.609375 61.539062 C 92.898438 61.886719 92.15625 62.210938 91.394531 62.515625 Z M 71.589844 63.246094 C 69.734375 62.429688 68.1875 61.304688 67.054688 59.882812 C 66.003906 58.246094 65.195312 56.117188 65.035156 54.832031 C 64.734375 51.285156 66.339844 47.445312 69.371094 44.015625 C 69.09375 48.066406 69.738281 51.839844 71.308594 55.316406 C 73.183594 59.441406 76.089844 62.535156 79.066406 64.8125 C 76.289062 64.734375 73.738281 64.203125 71.589844 63.246094 Z M 53.945312 34.199219 C 49.183594 32.433594 44.90625 29.417969 41.65625 25.386719 C 45.859375 22.382812 50.785156 20.609375 56.007812 20.214844 C 56.449219 20.183594 56.890625 20.167969 57.332031 20.15625 C 57.449219 20.148438 57.5625 20.152344 57.683594 20.144531 C 58.054688 20.140625 58.429688 20.140625 58.808594 20.152344 C 58.925781 20.15625 59.027344 20.15625 59.140625 20.164062 C 59.519531 20.171875 59.890625 20.195312 60.269531 20.226562 C 60.382812 20.234375 60.5 20.246094 60.617188 20.261719 C 60.941406 20.285156 61.261719 20.328125 61.582031 20.363281 C 61.785156 20.394531 61.996094 20.410156 62.199219 20.441406 C 65.355469 20.902344 68.402344 21.886719 71.214844 23.34375 C 74.664062 25.128906 77.757812 27.621094 80.253906 30.695312 C 79.441406 31.273438 78.597656 31.804688 77.742188 32.296875 C 77.304688 32.542969 76.859375 32.78125 76.402344 33.003906 C 76.269531 33.078125 76.125 33.144531 75.988281 33.210938 C 75.441406 33.46875 74.882812 33.722656 74.316406 33.949219 C 73.738281 34.179688 73.144531 34.386719 72.539062 34.578125 C 72.378906 34.628906 72.210938 34.6875 72.046875 34.734375 C 70.066406 35.332031 68.011719 35.726562 65.894531 35.882812 C 61.78125 36.1875 57.714844 35.589844 53.945312 34.199219 Z M 57.808594 5.773438 C 62.96875 5.929688 67.960938 7.492188 72.359375 10.359375 C 78.902344 14.605469 83.328125 21.367188 84.773438 28.871094 C 78.886719 20.929688 69.722656 16.03125 59.945312 15.484375 C 59.902344 15.480469 59.863281 15.484375 59.824219 15.484375 C 58.609375 12.421875 57.90625 9.136719 57.808594 5.773438 Z M 110.039062 27.066406 C 109.941406 26.992188 109.824219 26.9375 109.699219 26.898438 C 107.628906 26.234375 103.347656 26.300781 100.195312 30.386719 C 100.472656 27.167969 101.863281 25.273438 103.207031 24.199219 C 103.886719 25.417969 105.371094 25.980469 106.699219 25.449219 C 108.140625 24.875 108.84375 23.238281 108.269531 21.796875 C 107.6875 20.34375 106.054688 19.652344 104.613281 20.226562 C 104.496094 20.269531 104.390625 20.335938 104.285156 20.398438 C 102.238281 21.183594 97.714844 23.71875 97.34375 30.601562 C 94.972656 30.160156 92.417969 30.019531 89.753906 30.234375 C 88.578125 20.589844 83.191406 11.78125 74.925781 6.40625 C 69.070312 2.605469 62.3125 0.761719 55.371094 1.09375 C 54.15625 1.144531 53.195312 2.113281 53.128906 3.324219 C 52.914062 7.554688 53.535156 11.710938 54.859375 15.621094 C 48.199219 16.273438 41.992188 18.851562 36.875 23.140625 C 35.949219 23.917969 35.765625 25.277344 36.457031 26.277344 C 43.109375 35.972656 54.53125 41.449219 66.25 40.570312 C 66.726562 40.539062 67.195312 40.480469 67.667969 40.421875 C 63.382812 44.785156 61.015625 49.976562 61.28125 54.851562 C 61.195312 54.886719 61.109375 54.898438 61.023438 54.933594 C 58.425781 55.972656 57.011719 58.519531 57.855469 60.625 C 58.695312 62.730469 61.476562 63.609375 64.074219 62.570312 C 64.160156 62.535156 64.234375 62.488281 64.316406 62.441406 C 68.425781 67.277344 76.136719 69.425781 84.566406 68.230469 C 87.269531 67.839844 90.039062 67.109375 92.792969 66.007812 L 92.957031 65.941406 C 94.582031 65.285156 96.113281 64.53125 97.554688 63.703125 C 99.550781 62.550781 101.367188 61.238281 102.96875 59.820312 C 109.609375 53.96875 112.679688 46.230469 110.101562 39.773438 C 108.738281 36.367188 105.996094 33.785156 102.40625 32.15625 C 103.816406 30.289062 105.410156 29.632812 106.667969 29.453125 C 106.84375 30.40625 107.597656 31.179688 108.605469 31.3125 C 109.859375 31.484375 111.007812 30.609375 111.179688 29.355469 C 111.304688 28.402344 110.824219 27.511719 110.039062 27.066406 " fill-opacity="1" fill-rule="nonzero"/><path fill="#db9559" d="M 98.910156 39.777344 C 99.503906 41.257812 98.78125 42.941406 97.296875 43.53125 C 95.8125 44.125 94.132812 43.402344 93.539062 41.921875 C 92.945312 40.4375 93.667969 38.753906 95.152344 38.164062 C 95.390625 38.070312 95.636719 38.007812 95.878906 37.980469 C 95.261719 38.335938 94.988281 39.101562 95.261719 39.78125 C 95.558594 40.53125 96.410156 40.894531 97.160156 40.597656 C 97.90625 40.296875 98.273438 39.445312 97.972656 38.699219 C 97.9375 38.613281 97.898438 38.535156 97.851562 38.457031 C 98.3125 38.769531 98.6875 39.21875 98.910156 39.777344 " fill-opacity="1" fill-rule="nonzero"/><g fill="#004644" fill-opacity="1"><g transform="translate(39.878602, 103.969552)"><g><path d="M 15.628906 0.441406 C 19.25 0.441406 22.714844 -0.535156 25.394531 -1.921875 L 23 -6.867188 C 20.667969 -5.609375 18.023438 -5.074219 15.628906 -5.074219 C 10.679688 -5.074219 7.214844 -8.066406 7.214844 -12.695312 L 7.214844 -12.761719 C 7.214844 -17.644531 10.585938 -20.511719 15.628906 -20.511719 C 18.148438 -20.511719 20.730469 -19.910156 23 -18.683594 L 25.394531 -23.628906 C 22.652344 -25.078125 19.15625 -25.992188 15.628906 -25.992188 C 6.835938 -25.992188 1.230469 -20.699219 1.230469 -12.761719 L 1.230469 -12.695312 C 1.230469 -4.789062 6.898438 0.441406 15.628906 0.441406 Z M 15.628906 0.441406 "/></g></g></g><g fill="#004644" fill-opacity="1"><g transform="translate(64.987318, 103.969552)"><g><path d="M 11.816406 -19.15625 C 10.554688 -19.15625 9.074219 -19.0625 7.53125 -18.871094 L 7.53125 -25.550781 L 1.605469 -25.550781 L 1.605469 0 L 7.53125 0 L 7.53125 -13.515625 C 8.695312 -13.707031 10.300781 -13.863281 11.59375 -13.863281 C 14.273438 -13.863281 15.722656 -13.105469 15.722656 -10.585938 L 15.722656 0 L 21.644531 0 L 21.644531 -11.4375 C 21.644531 -17.328125 18.179688 -19.15625 11.816406 -19.15625 Z M 11.816406 -19.15625 "/></g></g></g><g fill="#004644" fill-opacity="1"><g transform="translate(86.945611, 103.969552)"><g><path d="M 11.71875 -19.09375 C 8.917969 -19.09375 5.890625 -18.589844 3.90625 -18.117188 L 2.550781 -12.949219 C 5.074219 -13.707031 8.128906 -14.144531 10.523438 -14.144531 C 14.210938 -14.144531 15.4375 -13.265625 15.4375 -11.214844 L 15.4375 -10.933594 C 13.609375 -11.089844 12.003906 -11.152344 10.367188 -11.152344 C 4.222656 -11.152344 1.195312 -9.167969 1.195312 -5.480469 L 1.195312 -5.449219 C 1.195312 -1.132812 4.820312 0.535156 11.058594 0.535156 C 13.957031 0.535156 17.957031 0.1875 21.425781 -0.410156 L 21.425781 -11.816406 C 21.425781 -17.042969 18.398438 -19.09375 11.71875 -19.09375 Z M 7.277344 -5.828125 C 7.277344 -7.277344 8.851562 -7.75 12.003906 -7.75 C 13.105469 -7.75 14.429688 -7.6875 15.5 -7.53125 L 15.5 -4.0625 C 14.523438 -3.9375 13.359375 -3.875 12.003906 -3.875 C 8.695312 -3.875 7.277344 -4.472656 7.277344 -5.796875 Z M 7.277344 -5.828125 "/></g></g></g><g fill="#004644" fill-opacity="1"><g transform="translate(108.651876, 103.969552)"><g><path d="M 7.53125 0 L 7.53125 -12.726562 C 8.160156 -12.855469 10.175781 -12.917969 11.027344 -12.917969 L 15.5625 -12.917969 L 15.5625 -18.398438 L 11.816406 -18.398438 C 9.863281 -18.398438 5.074219 -18.242188 1.605469 -17.707031 L 1.605469 0 Z M 7.53125 0 "/></g></g></g><g fill="#004644" fill-opacity="1"><g transform="translate(124.057288, 103.969552)"><g><path d="M 12.570312 -19.1875 C 5.417969 -19.1875 1.230469 -16.035156 1.230469 -10.175781 L 1.230469 -10.113281 C 1.230469 -4.222656 5.324219 -0.976562 12.507812 -0.976562 C 13.738281 -0.976562 14.996094 -1.101562 16.257812 -1.292969 L 16.257812 -0.628906 C 16.257812 1.355469 15.25 2.140625 11.972656 2.140625 C 9.421875 2.140625 5.984375 1.734375 3.589844 1.007812 L 4.945312 6.363281 C 6.773438 6.835938 9.640625 7.308594 12.476562 7.308594 C 18.808594 7.308594 22.179688 5.292969 22.179688 0.03125 L 22.179688 -17.582031 C 19.4375 -18.429688 15.847656 -19.1875 12.570312 -19.1875 Z M 7.246094 -10.113281 C 7.246094 -12.824219 9.105469 -13.925781 12.476562 -13.925781 C 13.707031 -13.925781 15.058594 -13.769531 16.257812 -13.515625 L 16.257812 -6.585938 C 14.933594 -6.363281 13.671875 -6.269531 12.570312 -6.269531 C 9.136719 -6.269531 7.246094 -7.339844 7.246094 -10.082031 Z M 7.246094 -10.113281 "/></g></g></g><g fill="#004644" fill-opacity="1"><g transform="translate(146.519648, 103.969552)"><g><path d="M 22.714844 -8.445312 C 22.714844 -15.53125 18.335938 -19.125 12.035156 -19.125 C 5.449219 -19.125 1.230469 -15.058594 1.230469 -9.355469 L 1.230469 -9.292969 C 1.230469 -3.308594 5.796875 0.503906 12.601562 0.503906 C 16.570312 0.503906 19.910156 -0.660156 21.898438 -1.796875 L 19.3125 -6.363281 C 17.613281 -5.417969 15.3125 -4.632812 12.792969 -4.632812 C 9.796875 -4.632812 7.941406 -6.050781 7.371094 -8.097656 L 22.714844 -8.097656 Z M 12.003906 -14.460938 C 14.492188 -14.460938 16.226562 -13.199219 16.730469 -11.34375 L 7.433594 -11.34375 C 8.066406 -13.296875 9.765625 -14.460938 12.003906 -14.460938 Z M 12.003906 -14.460938 "/></g></g></g><g fill="#004644" fill-opacity="1"><g transform="translate(169.139529, 103.969552)"><g><path d="M 7.53125 0 L 7.53125 -12.726562 C 8.160156 -12.855469 10.175781 -12.917969 11.027344 -12.917969 L 15.5625 -12.917969 L 15.5625 -18.398438 L 11.816406 -18.398438 C 9.863281 -18.398438 5.074219 -18.242188 1.605469 -17.707031 L 1.605469 0 Z M 7.53125 0 "/></g></g></g><g fill="#004644" fill-opacity="1"><g transform="translate(184.544941, 103.969552)"><g/></g></g><g fill="#004644" fill-opacity="1"><g transform="translate(189.144414, 103.969552)"><g><path d="M 15.375 0 C 21.140625 0 24.699219 -2.140625 24.699219 -7.46875 L 24.699219 -7.53125 C 24.699219 -10.617188 22.84375 -12.917969 19.660156 -13.640625 C 22.085938 -14.492188 23.566406 -16.476562 23.566406 -19.25 L 23.566406 -19.3125 C 23.566406 -23.15625 21.296875 -25.550781 15.21875 -25.550781 L 1.605469 -25.550781 L 1.605469 0 Z M 7.46875 -20.070312 L 14.554688 -20.070312 C 16.699219 -20.070312 17.707031 -19.25 17.707031 -17.644531 L 17.707031 -17.582031 C 17.707031 -16.003906 16.636719 -15.15625 14.492188 -15.15625 L 7.46875 -15.15625 Z M 7.46875 -10.933594 L 15.21875 -10.933594 C 17.515625 -10.933594 18.714844 -10.019531 18.714844 -8.378906 L 18.714844 -8.285156 C 18.714844 -6.523438 17.582031 -5.480469 15.3125 -5.480469 L 7.46875 -5.480469 Z M 7.46875 -10.933594 "/></g></g></g><g fill="#004644" fill-opacity="1"><g transform="translate(213.56003, 103.969552)"><g><path d="M 22.714844 -8.445312 C 22.714844 -15.53125 18.335938 -19.125 12.035156 -19.125 C 5.449219 -19.125 1.230469 -15.058594 1.230469 -9.355469 L 1.230469 -9.292969 C 1.230469 -3.308594 5.796875 0.503906 12.601562 0.503906 C 16.570312 0.503906 19.910156 -0.660156 21.898438 -1.796875 L 19.3125 -6.363281 C 17.613281 -5.417969 15.3125 -4.632812 12.792969 -4.632812 C 9.796875 -4.632812 7.941406 -6.050781 7.371094 -8.097656 L 22.714844 -8.097656 Z M 12.003906 -14.460938 C 14.492188 -14.460938 16.226562 -13.199219 16.730469 -11.34375 L 7.433594 -11.34375 C 8.066406 -13.296875 9.765625 -14.460938 12.003906 -14.460938 Z M 12.003906 -14.460938 "/></g></g></g><g fill="#004644" fill-opacity="1"><g transform="translate(236.179922, 103.969552)"><g><path d="M 22.714844 -8.445312 C 22.714844 -15.53125 18.335938 -19.125 12.035156 -19.125 C 5.449219 -19.125 1.230469 -15.058594 1.230469 -9.355469 L 1.230469 -9.292969 C 1.230469 -3.308594 5.796875 0.503906 12.601562 0.503906 C 16.570312 0.503906 19.910156 -0.660156 21.898438 -1.796875 L 19.3125 -6.363281 C 17.613281 -5.417969 15.3125 -4.632812 12.792969 -4.632812 C 9.796875 -4.632812 7.941406 -6.050781 7.371094 -8.097656 L 22.714844 -8.097656 Z M 12.003906 -14.460938 C 14.492188 -14.460938 16.226562 -13.199219 16.730469 -11.34375 L 7.433594 -11.34375 C 8.066406 -13.296875 9.765625 -14.460938 12.003906 -14.460938 Z M 12.003906 -14.460938 "/></g></g></g></svg>